<?xml version="1.0" encoding="UTF-8"?>
<svg id="a" data-name="Layer 1" xmlns="http://www.w3.org/2000/svg" viewBox="0 0 50 50">
  <path d="M0,0v50h50V0H0ZM48.38,47.96H1.62V2.04h46.75v45.92Z" style="fill: #5c90cc; fill-rule: evenodd;"/>
  <path d="M31.5,34.71c.11-.03.13-.07.21-.12v-.04h.08v-.04h.08v-.04h.17v-.04c.13-.04.46.06.54.08.19.05.38-.07.54-.08l.21-.25h.04v-.08l.08-.04v-.12h.04v-.12h.04v-.21h.04v-.33h.04v-3.04c.07-.27.04-.71.04-1.04v-4.21h-.04v-.17c-.01-.49.07-1.13-.04-1.54v-.67c0-.5,0-1.07-.04-1.5l.04-3.08c.07-.26.09-1.42,0-1.67-.05.05-.02,0-.04.08h-.04l-.04.25c-.2.53-.08,1.2-.08,1.83l-.04,3.83v.17h.04v1.62c-.11.38-.04,1-.04,1.46l-.04,2c.09.33.09,1.67,0,2l-.04.62-.29,1.04h-.04v.08h-.04v.12h-.04l-.08.25h-.04v.08h-.04v.08h-.04v.08h-.04l-.08.25-.08.04-.04.17-.12.08v.08l-.08.04v.08l-.12.08v.08l-.12.08v.08l-.33.29v.08l-.29.25-.04.08h-.08l-.21.25h-.08l-.12.17-.12.04-.04.08h-.08l-.08.12h-.08l-.04.08-.12.04v.04h-.08l-.04.08-.17.04-.04.08-.17.04-.04.08-.25.08v.04h-.08v.04l-.25.08v.04h-.12v.04l-.17.04v.04h-.12v.04h-.08v.04h-.12v.04h-.08v.04l-.25.04v.04h-.12v.04h-.12v.04h-.12v.04l-.33.04v.04h-.17v.04h-.17v.04h-.17v.04h-.25v.04h-.25v.04h-.37v.04h-.75v.04l-.83-.04v-.04h-.42v-.04l-.83-.08v-.04h-.21v-.04l-.37-.04v-.04h-.17v-.04h-.17v-.04h-.17v-.04h-.12v-.04h-.12v-.04h-.12v-.04h-.12v-.04l-.25-.04v-.04h-.08v-.04h-.12v-.04h-.08v-.04h-.12v-.04l-.17-.04v-.04l-.17-.04-.04-.08h-.08v-.04h-.08v-.04h-.08v-.04h-.08l-.08-.12h-.08l-.04-.08h-.08l-.08-.12h-.08l-.12-.17-.33-.29-.04-.12-.29-.25v-.04h-.08l-.21.25h-.08l-.12.17-.12.04-.04.08h-.08l-.04.08-.12.04v.04h-.08l-.04.08h-.08l-.04.08-.17.04-.04.08h-.08v.04h-.08v.04h-.08v.04h-.08v.04h-.08v.04h-.08v.04h-.08v.04l-.25.08v.04h-.12v.04l-.17.04v.04h-.12v.04h-.08v.04l-.25.04v.04h-.08v.04h-.17v.04h-.12v.04h-.12v.04h-.12v.04h-.17v.04h-.17v.04h-.17v.04h-.17v.04h-.21v.04l-.42.04v.04h-.25v.04h-.29v.04h-.33v.04h-.37v.04h-.5v.04h-1.12v.04l-.87-.04v-.04h-.42v-.04h-.29c-.21-.06-.51-.1-.71-.17h-.21c-.22-.07-.5-.14-.71-.21h-.17v-.04h-.12v-.04h-.12v-.04l-.54-.12v-.04h-.08v-.04h-.12v-.04l-.17-.04v-.04l-.37-.12-.04-.08-.17-.04c-.43-.27-.61-.77-1.29-.79-.03.05-.07.06-.08.08v.08h-.04l-.04.37h-.04l-.04.62h-.04l-.08.25-.25.21s-.03.06-.04.08c-.07.05-.09,0-.17.08l-.42.04c-.07-.08-.1-.04-.17-.08l-.12-.17h-.04c-.23-.34-.3-1.48-.17-1.96v-.42h.04v-.33h.04v-.37h.04v-.37h.04v-.37h.04v-.5h.04v-.29h-.04v-.54l-.04-1.08h-.04l-.08-1.54h-.04v-.5h-.04v-.54c-.09-.31-.07-1.04.04-1.29l.25-.33h.08l.04-.08c.08-.05.09,0,.17-.08.29,0,.42.04.62.08l.21.25h.04v.08h.04l.04.17h.04l.04.46h.04v.54c0,.46-.02.99.08,1.33v.21h.04v.12h.04v.17h.04v.08h.04l.04.25h.04v.08h.04v.12h.04l.08.25h.04v.08h.04v.12h.04v.08h.04l.08.25h.04v.12h.04v.08h.04l.04.17h.04v.12h.04l.04.17h.04v.12h.04v.08h.04l.04.17h.04l.12.37.08.04.08.25.08.04v.08l.12.08v.08l.12.08v.08l.12.08v.08l.21.17v.08l.29.25v.08l.37.33.12.17h.08l.12.17h.08l.12.17h.08l.04.08h.08l.04.08.17.04.04.08h.08v.04h.08v.04c.43.19.9.28,1.37.42h.33c.31.09,1.52.09,1.83,0h.37c.25-.07.59-.09.83-.17h.21v-.04h.17v-.04h.17v-.04h.17v-.04h.17v-.04h.12v-.04h.12v-.04h.12v-.04h.08v-.04l.25-.04v-.04h.08v-.04h.12v-.04l.17-.04v-.04h.08v-.04h.12v-.04h.08v-.04h.08l.04-.08.25-.08.04-.08.17-.04.04-.08h.08l.04-.08h.08l.08-.12h.08l.12-.17h.08l.42-.46c.14-.14.35-.3.37-.54h-.04l-.04-.25h-.04v-.12h-.04v-.12c-.17-.43-.25-.94-.25-1.54l-.04-.5h.04l.04-.33h.04l.08-.25h.04v-.08h.04v-.08l.46-.5h.08l.04-.08h.08v-.04c.12-.07.07.04.12-.12h-.04l-.04-.25h-.04v-.08h-.04v-.08h-.04v-.08h-.04v-.08h-.04v-.08h-.04v-.08l-.08-.04-.04-.17-.17-.12v-.08l-.21-.17-.37-.42h-.08l-.12-.17h-.08l-.04-.08h-.08l-.04-.08h-.08l-.04-.08h-.08l-.04-.08-.17-.04-.04-.08h-.08v-.04h-.08v-.04h-.08v-.04h-.08v-.04h-.08v-.04h-.08l-.04-.08-.21-.04v-.04h-.08v-.04l-.25-.08v-.04h-.12v-.04h-.08v-.04l-.21-.04v-.04h-.12v-.04h-.08v-.04l-.25-.04v-.04h-.12v-.04h-.12v-.04h-.17v-.04h-.17v-.04h-.17v-.04h-.21v-.04l-.42-.04v-.04l-.46-.04v-.04h-.33v-.04h-.29v-.04h-.29v-.04h-.29c-.27-.08-.62-.13-.87-.21h-.21v-.04l-.29-.04v-.04l-.29-.04v-.04h-.12v-.04h-.12v-.04l-.25-.04v-.04h-.08v-.04l-.25-.04v-.04l-.25-.08v-.04l-.25-.08-.04-.08h-.08l-.04-.08h-.08l-.08-.12h-.08l-.08-.12h-.08l-.12-.17h-.08l-.29-.33-.12-.08v-.08l-.25-.21v-.08l-.12-.08v-.08l-.08-.04v-.08l-.08-.04v-.08l-.08-.04-.08-.25h-.04v-.08h-.04v-.08h-.04l-.08-.25h-.04l-.29-1.04v-.33c-.15-.55.01-1.32.17-1.71v-.12h.04v-.08h.04v-.12h.04l.04-.17h.04l.04-.17.08-.04.04-.17.08-.04v-.08l.12-.08v-.08l.17-.12v-.08l.29-.25.17-.21h.08l.12-.17h.08l.08-.12.12-.04.04-.08h.08v-.04h.08l.04-.08.25-.08.04-.08.17-.04v-.04l.17-.04v-.04h.12v-.04h.08v-.04l.21-.04v-.04l.25-.04v-.04h.08v-.04l1.17-.25h.46c.13-.04.64-.1.83-.04v.04h.33v.04h.25v.04h.25v.04l.33.04v.04h.12v.04h.12v.04h.12v.04h.12v.04l.17.04v.04h.12v.04l.25.08v.04h.08v.04h.08v.04l.67.29v.04h.08v.04l.25.08v.04l.25.04v.04h.58v-.04c.25-.11.4-.28.58-.46l.08-.12c.22-.16.49-.21.87-.21v.04h.12l.04.08h.08l.21.29v.12h.04v.12h.04v.21h.04v.37h.04v.5h.04l.04.46h.04l.04.29h.04v.08h.04v.12h.04v.12h.04v.12h.04l.04.25h.04v.08h.04l.04.25h.04v.08h.04v.12h.04v.12h.04v.12h.04v.12h.04v.12h.04v.12h.04v.12h.04l.12.58h.04v.21c.03.08.09.35.04.5h-.04l-.04.21c-.09.05-.09.09-.21.12-.19.18-.59.05-.75-.04h-.08l-.46-.5-.04-.17-.08-.04-.04-.17h-.04l-.04-.12-.08-.04-.04-.17h-.04l-.04-.12-.08-.04v-.08l-.12-.08v-.08l-.42-.37-.04-.12h-.08l-.33-.37-.17-.12v-.08l-.33-.29-.04-.12-.12-.08-.25-.29h-.08l-.12-.17h-.08l-.08-.12h-.08l-.08-.12h-.08v-.04h-.08l-.04-.08-.17-.04-.04-.08h-.08v-.04l-.17-.04v-.04h-.12v-.04l-.17-.04v-.04l-.21-.04v-.04h-.17v-.04h-.12v-.04h-.12v-.04h-.17v-.04h-.21v-.04h-.25v-.04l-1.17-.04c-1.17,0-1.96.21-2.54.79l-.17.12v.08l-.08.04-.04.12h-.04v.08h-.04v.08h-.04v.12h-.04v.12c-.15.4-.16.82,0,1.21v.12h.04v.08l.08.04v.08l.08.04.21.25h.08l.08.12.17.04v.04l.25.08v.04h.12v.04h.12v.04h.12v.04h.17v.04h.17v.04h.29v.04h.37v.04h.87v.04h.37v.04h.29c.32.1.73.14,1.04.25l.33.04v.04h.12v.04h.12v.04l.42.08v.04h.08v.04l.25.04v.04l.17.04v.04h.12v.04l.25.08v.04h.08v.04l.25.08.04.08.25.08.04.08.25.08v.04l.12.04.04.08.17.04.04.08h.08v.04l.12.04.04.08h.08v.04l.12.04.04.08h.08l.08.12h.08l.04.08h.08l.08.12h.08l.04.08h.04l.04.08h.08l.12.17h.08l.21.25h.08l.37.42.46.42v.08l.21.17v.08l.12.08v.08l.12.08v.08l.12.08v.08l.08.04v.08l.08.04.08.25.08.04v.08h.04v.08h.04v.08h.04v.08h.04v.08h.04v.08h.04l.08.25h.04v.12h.04v.08h.04l.04.25c.41.95.52,2.25.46,3.54l-.08.62h-.04l-.04.37h-.04l-.04.29h-.04l-.04.25h-.04v.08h-.04v.12h-.04l-.04.21h-.04v.08h-.04v.08h-.04v.08h-.04v.08h-.04v.08l-.08.04-.04.17h-.04v.04h.04l.21.25h.08l.25.29h.08l.12.17h.08l.08.12h.08l.08.12h.08l.04.08h.08l.04.08.17.04.04.08.25.08v.04h.08v.04h.08v.04l.25.08v.04l.25.04v.04h.12v.04h.12v.04h.12v.04h.12v.04h.21v.04h.21v.04h.25v.04h.42v.04h.42c.36,0,.84.04,1.12-.04h.29v-.04h.21v-.04h.17v-.04h.12v-.04h.17c1.81-.71,3.05-2.01,3.71-3.87l.08-.54v-.33c.07-.24.04-.65.04-.96v-1.75l.04-4.83h.04v-.62c.09-.32.04-.85.04-1.25v-2.58l-.04-1.25h-.04v-.12l-.08-.04v-.08l-.17-.12-.04-.08h-.08l-.04-.08h-.08l-.04-.08h-.08v-.04h-.08v-.04h-.08v-.04h-.08l-.04-.08c-.1-.06-.22-.04-.33-.08v-.04h-.17v-.04h-.17v-.04h-.12v-.04h-.12c-.14-.06-.24-.15-.33-.25l-.08-.04v-.25l.12-.08v-.04h.08l.04-.08.25-.04v-.04c.24-.08,1.04.04,1.21.08h.42c.21.06.59-.03.83.04.07.02.29.09.42.04v-.04h.08v-.04l.29-.04v-.04c.06-.01.37.07.42.08l2,.04c.1-.03.44-.12.58-.08.19.05.59.16.87.08v-.04h1c.25-.07.66.03.92-.04v-.04h.33v.04h.33v.04l.25.04.12.17h.04c.06.09.04.24.04.37-.08.07-.03.1-.08.17l-.29.25-.04.08-.25.08v.04h-.12c-.46.18-1.33.13-1.46.62-.2.18-.12.79-.12,1.17l-.04,2.96v2.21c.07.27.04.71.04,1.04l.04,1.29v2.46h.04v1h.04v.62c0,.5.03,1.11-.04,1.54v1.12c0,1.11,0,2.29.75,2.62.54.24,1.49-.03,2.17.08.45.07,1.07.04,1.58.04.29,0,.66.02.88-.04l.54-.04v-.04h.17v-.04h.12v-.04h.12v-.04h.08v-.04h.12v-.04l.17-.04v-.04h.08l.04-.08.17-.04.04-.08h.08l.08-.12h.08l.08-.12h.08l.17-.21h.08l.17-.21h.08l.29-.33.12-.08v-.08l.5-.46c.36-.36.58-.74,1.29-.75.14.15.28.07.29.37.12.13-.04.59-.08.71l-.04.29h-.04v.12h-.04v.12h-.04v.12h-.04v.12h-.04l-.04.25h-.04v.08h-.04l-.04.25h-.04v.08h-.04l-.08.42-.42.92-.08.04v.08l-.29.25-.04.08-.25.08v.04h-.12v.04l-.96-.04v.04c-.47.13-1.01.04-1.58.04-1.19-.04-2.39-.08-3.58-.12v-.04h-1.46v.04c-.23.06-.59-.01-.79.04h-.75v.04h-1c-.06.02.02.03-.04.04h-1v.04c-.23.06-.84-.04-1-.08h-.33v-.04h-.33c-.32-.09-.72-.16-.87-.42-.09-.08-.09-.24-.08-.42.07-.05.14-.15.17-.25Z" style="fill: #fff; fill-rule: evenodd;"/>
</svg>