<?xml version="1.0" encoding="UTF-8"?><svg id="Layer_1" xmlns="http://www.w3.org/2000/svg" viewBox="0 0 22 24"><path d="M14.25,20.73c-.52,0-.94.43-.94.97s.42.97.94.97.94-.43.94-.97-.42-.97-.94-.97ZM20.12,12.82c-.5-.78-2.06-2.81-4.57-3.95-.32-.14-.64-.28-.96-.39.86-2.15-.15-4.6-2.25-5.48-.08-.04-.17-.07-.26-.1-.65-.22-1.22-.32-1.7-.31-.03-.11-.1-.59.49-1.88l-1.2-.73-.29.41c-.45.65-.89,1.26-1.27,1.87-.14-.03-.29-.06-.43-.07-2.17-.13-2.04-.12-2.15-.12-2.65,0-2.66,2.79-2.66,2.46l-.12,1.97c-.08,1.44,1.03,2.69,2.49,2.78l.47.03c-.89.52-1.71,1.16-2.42,1.9C0,14.6,0,18.32,0,21.31v1.8l1.22-1.59c.16.7.42,1.38.76,2.01.3.54.78.51,1.03.39.22-.1.52-.37.2-1.08-.42-.9-.7-1.86-.82-2.85l2.45-3.2-1.29,3.97c3.05-2.27,8.24-3.31,12.37-2.07,1.79.54,3.54.04,4.44-1.27.04-.05.06-.12.1-.17.09.5.14,1.01.15,1.52,0,1.25-.19,2.84-.78,4.37-.13.35.09.78.45.84.39.09.8-.17.96-.6.5-1.37.77-2.92.77-4.62,0-2.07-.68-4.15-1.88-5.95h0ZM6.72,5.17l-.82-.05-.07,1.17.69.04c-.03.35-.03.7.02,1.05l-1.17-.07c-.35-.02-.63-.32-.62-.68h0l.13-1.96c.05-.65.72-.6.69-.61l1.52.09c-.14.33-.26.67-.36,1.02ZM14.5,14.4c-.23.18-.56.15-.75-.07l-.51-.62-1.8,1.44c-.18.14-.43.12-.58-.06l-.83-1c-.13-.17-.1-.42.07-.55l1.81-1.46-.74-.9-.89.72c-.17.13-.41.11-.55-.05,0,0-.19-.23-.2-.25-.13-.17-.1-.42.07-.55l.89-.71s-.97-1.18-.98-1.18c-.17-.22-.13-.54.09-.72h0c.23-.19.56-.15.75.07l4.25,5.16c.17.23.13.55-.09.73h0ZM9.08,20.73c-.52,0-.94.43-.94.97s.42.97.94.97.94-.43.94-.97-.42-.97-.94-.97Z"/></svg>